<svg width="375" height="812" viewBox="0 0 375 812" fill="none" xmlns="http://www.w3.org/2000/svg">
<g clip-path="url(#clip0_)">
<rect width="375" height="812" fill="#DD7F4A"/>
<circle cx="278" cy="99" r="300" transform="rotate(-180 278 99)" fill="url(#paint0_radial_)"/>
<circle cx="98" cy="99" r="300" transform="rotate(-180 98 99)" fill="url(#paint1_radial_)"/>
<mask id="mask0_" style="mask-type:alpha" maskUnits="userSpaceOnUse" x="0" y="-8" width="390" height="820">
<path d="M0.5 -7.5H389.5V811.5H0.5V-7.5Z" fill="#28AED8" stroke="black"/>
</mask>
<g mask="url(#mask0_)">
<path d="M382.681 166.806V-316.711L186.612 -425.56L-9.45691 -316.711V166.806L186.612 275.662L382.681 166.806Z" fill="url(#paint2_linear_)"/>
<g style="mix-blend-mode:luminosity" opacity="0.4">
<path d="M-7.48973 59.0472V167.51L90.053 221.746L187.596 167.51V59.0472L90.053 4.81077L-7.48973 59.0472Z" fill="url(#paint3_linear_)"/>
<path d="M-7.48973 -49.4207V59.0418L90.053 113.278L187.596 59.0418V-49.4207L90.053 -103.657L-7.48973 -49.4207Z" fill="url(#paint4_linear_)"/>
<path d="M285.138 -103.629V4.83342L187.596 59.0699L90.053 4.83342V-103.629L187.596 -157.866L285.138 -103.629Z" fill="url(#paint5_linear_)"/>
<path d="M187.595 167.51V59.0471L285.138 4.81067L382.68 59.0471V167.51L285.138 221.746L187.595 167.51Z" fill="url(#paint6_linear_)"/>
<path d="M382.681 -49.4207V59.0418L285.138 113.278L187.596 59.0418V-49.4207L285.138 -103.657L382.681 -49.4207Z" fill="url(#paint7_linear_)"/>
<path d="M285.138 221.769V113.306L187.596 59.0699L90.053 113.306L90.053 221.769L187.596 276.005L285.138 221.769Z" fill="url(#paint8_linear_)"/>
</g>
</g>
</g>
<defs>
<radialGradient id="paint0_radial_" cx="0" cy="0" r="1" gradientUnits="userSpaceOnUse" gradientTransform="translate(278 99) rotate(90) scale(300)">
<stop stop-color="#FFC323"/>
<stop offset="1" stop-color="#121214" stop-opacity="0"/>
</radialGradient>
<radialGradient id="paint1_radial_" cx="0" cy="0" r="1" gradientUnits="userSpaceOnUse" gradientTransform="translate(98 99) rotate(90) scale(300)">
<stop stop-color="#FF3D6E"/>
<stop offset="1" stop-color="#121214" stop-opacity="0"/>
</radialGradient>
<linearGradient id="paint2_linear_" x1="-80.4568" y1="56.5684" x2="442.595" y2="242.886" gradientUnits="userSpaceOnUse">
<stop stop-color="#4098C9"/>
<stop offset="0.552083" stop-color="#D9A5BD"/>
<stop offset="0.807292" stop-color="#459ACA"/>
<stop offset="0.9999" stop-color="#F9FFE3"/>
<stop offset="1" stop-color="#3E8DD6"/>
</linearGradient>
<linearGradient id="paint3_linear_" x1="90.053" y1="216.758" x2="-2.12892" y2="53.8817" gradientUnits="userSpaceOnUse">
<stop stop-color="#2F6E72"/>
<stop offset="1" stop-color="#B87098" stop-opacity="0"/>
</linearGradient>
<linearGradient id="paint4_linear_" x1="90.053" y1="108.29" x2="-2.12894" y2="-54.5862" gradientUnits="userSpaceOnUse">
<stop stop-color="#2F6E72"/>
<stop offset="1" stop-color="#B87098" stop-opacity="0"/>
</linearGradient>
<linearGradient id="paint5_linear_" x1="90.053" y1="-109.725" x2="281.164" y2="9.67996" gradientUnits="userSpaceOnUse">
<stop stop-color="#83BEDF" stop-opacity="0"/>
<stop offset="1" stop-color="#FFCD1E"/>
</linearGradient>
<linearGradient id="paint6_linear_" x1="382.68" y1="173.605" x2="191.569" y2="54.2006" gradientUnits="userSpaceOnUse">
<stop stop-color="#83BEDF" stop-opacity="0"/>
<stop offset="1" stop-color="#FFCD1E"/>
</linearGradient>
<linearGradient id="paint7_linear_" x1="285.138" y1="108.29" x2="377.32" y2="-54.5862" gradientUnits="userSpaceOnUse">
<stop stop-color="#2F6E72"/>
<stop offset="1" stop-color="#B87098" stop-opacity="0"/>
</linearGradient>
<linearGradient id="paint8_linear_" x1="187.596" y1="64.0582" x2="279.778" y2="226.934" gradientUnits="userSpaceOnUse">
<stop stop-color="#2F6E72"/>
<stop offset="1" stop-color="#B87098" stop-opacity="0"/>
</linearGradient>
<clipPath id="clip0_">
<rect width="375" height="812" fill="white"/>
</clipPath>
</defs>
</svg>
